<?xml version="1.0" encoding="UTF-8" standalone="no"?>
<!-- Created with Inkscape (http://www.inkscape.org/) -->

<svg
   width="26mm"
   height="27mm"
   viewBox="0 0 26 27"
   version="1.1"
   id="svg5"
   xml:space="preserve"
   sodipodi:docname="insta.svg"
   inkscape:version="1.2.2 (732a01da63, 2022-12-09)"
   xmlns:inkscape="http://www.inkscape.org/namespaces/inkscape"
   xmlns:sodipodi="http://sodipodi.sourceforge.net/DTD/sodipodi-0.dtd"
   xmlns="http://www.w3.org/2000/svg"
   xmlns:svg="http://www.w3.org/2000/svg"><sodipodi:namedview
     id="namedview7"
     pagecolor="#ffffff"
     bordercolor="#000000"
     borderopacity="0.25"
     inkscape:showpageshadow="2"
     inkscape:pageopacity="0.0"
     inkscape:pagecheckerboard="0"
     inkscape:deskcolor="#d1d1d1"
     inkscape:document-units="mm"
     showgrid="false"
     inkscape:zoom="1.4503086"
     inkscape:cx="241.6727"
     inkscape:cy="26.546074"
     inkscape:window-width="1920"
     inkscape:window-height="1001"
     inkscape:window-x="-9"
     inkscape:window-y="-9"
     inkscape:window-maximized="1"
     inkscape:current-layer="layer1" /><defs
     id="defs2" /><g
     inkscape:label="Слой 1"
     inkscape:groupmode="layer"
     id="layer1"><path
       style="fill:#000000;stroke-width:0.264583"
       d="M 3.909396,26.243015 C 2.10426,25.548917 0.996429,24.373739 0.445674,22.568727 0.074043,21.350766 0,19.899259 0,13.832056 0,5.5686432 0.201713,4.3044752 1.761051,2.7952552 3.52185,1.0910512 3.960566,1.0121952 12.211008,0.91696619 25.581428,0.76264119 26.036807,1.1880252 26.036807,13.832056 c 0,9.558245 -0.594373,11.275528 -4.336129,12.528098 -1.094777,0.366479 -2.516357,0.434273 -8.863542,0.422698 -6.889845,-0.01257 -7.680854,-0.06039 -8.92774,-0.539837 z M 18.16341,20.528303 c 1.776516,-1.040416 1.922696,-1.505339 2.007214,-6.383945 0.08594,-4.9605778 -0.110252,-5.7099848 -1.796116,-6.8607388 -0.818184,-0.558484 -1.143889,-0.595287 -5.264782,-0.594902 -5.194845,4.77e-4 -5.885434,0.213132 -6.84004,2.106173 -0.534385,1.059717 -0.595313,1.5669038 -0.595313,4.9555828 0,6.807355 0.885582,7.581266 8.415653,7.354452 2.534782,-0.07635 3.437323,-0.204112 4.073384,-0.576622 z M 7.617385,19.211502 C 7.322778,18.938093 7.129581,18.108797 7.129581,18.108797 V 13.832056 9.5553162 c 0,0 0.328035,-0.7846117 0.63603,-1.0570977 0.29853,-0.2641108 1.09211,-0.4869953 1.09211,-0.4869953 h 3.952126 c 2.39187,0 4.213146,0.118928 4.613286,0.301243 1.171413,0.533733 1.480407,1.672088 1.480407,5.4539488 0,5.733344 -0.157856,5.886474 -6.068102,5.886474 H 8.857721 c 0,0 -0.91867,-0.142866 -1.240336,-0.441387 z m 7.84631,-2.60107 c 2.546471,-2.439676 0.929145,-6.482542 -2.593306,-6.482542 -1.453539,0 -2.69879,0.915881 -3.336131,2.453726 -0.514588,1.241645 -0.514588,1.259235 0,2.500881 0.737409,1.779295 1.925447,2.535567 3.752741,2.388892 1.079101,-0.08662 1.571914,-0.28154 2.176696,-0.860957 z m -3.571613,-0.716694 c -0.846289,-0.485346 -1.173203,-1.067245 -1.182212,-2.104308 -0.0066,-0.762545 0.164809,-1.114424 0.805638,-1.653646 0.447725,-0.376738 1.048951,-0.684978 1.336056,-0.684978 0.900115,0 1.995218,0.736268 2.342642,1.575023 0.807545,1.949591 -1.463747,3.922217 -3.302124,2.867909 z m 5.706948,-5.391152 c 0.470017,-0.5663368 -0.0028,-1.3007378 -0.837369,-1.3007378 -0.719955,0 -0.991603,0.735338 -0.493405,1.3356268 0.414943,0.499976 0.897374,0.487328 1.330774,-0.03489 z"
       id="path302"
       sodipodi:nodetypes="sssssssssssssssssacccscsssscasscsssscsssssssss" /></g></svg>
