<?xml version="1.0" encoding="UTF-8" standalone="no"?>
<!-- Created with Inkscape (http://www.inkscape.org/) -->

<svg
   width="97.630997mm"
   height="97.630997mm"
   viewBox="0 0 97.630997 97.630997"
   version="1.1"
   id="svg5"
   xml:space="preserve"
   inkscape:version="1.2.2 (732a01da63, 2022-12-09)"
   sodipodi:docname="logo.svg"
   xmlns:inkscape="http://www.inkscape.org/namespaces/inkscape"
   xmlns:sodipodi="http://sodipodi.sourceforge.net/DTD/sodipodi-0.dtd"
   xmlns="http://www.w3.org/2000/svg"
   xmlns:svg="http://www.w3.org/2000/svg"><sodipodi:namedview
     id="namedview7"
     pagecolor="#ffffff"
     bordercolor="#000000"
     borderopacity="0.25"
     inkscape:showpageshadow="2"
     inkscape:pageopacity="0.0"
     inkscape:pagecheckerboard="0"
     inkscape:deskcolor="#d1d1d1"
     inkscape:document-units="mm"
     showgrid="false"
     inkscape:zoom="1.4503086"
     inkscape:cx="232.70909"
     inkscape:cy="211.33433"
     inkscape:window-width="1920"
     inkscape:window-height="1001"
     inkscape:window-x="-9"
     inkscape:window-y="-9"
     inkscape:window-maximized="1"
     inkscape:current-layer="layer1" /><defs
     id="defs2" /><g
     inkscape:label="Слой 1"
     inkscape:groupmode="layer"
     id="layer1"><path
       style="fill:#151515;stroke:none;stroke-width:0.264583"
       d="m 44.304166,23.160512 v 0.264583 c -5.7224,1.062355 -12.69444,0.393727 -17.72708,3.91586 -4.17417,2.921503 -4.0291,7.927684 -0.26432,11.079136 4.06691,3.404659 9.10061,3.928004 14.02265,5.113338 v 0.264583 c -8.70241,0.0011 -17.99873,2.230438 -25.92916,5.70865 -2.66227,1.167871 -7.3723996,3.631142 -6.4659696,7.255933 0.86315,3.451755 5.6129996,5.384271 8.5826296,6.560609 8.98314,3.558646 19.80327,4.287308 29.36875,4.287308 v 0.264583 c -3.83487,0.564357 -8.57355,2.182813 -11.6414,4.601105 -3.41048,2.688695 -2.14312,5.595408 1.32265,7.369439 1.20201,0.615421 2.42147,1.105165 3.70417,1.523206 v 0.264584 l -20.90208,1.013354 -8.9958396,0.838729 v 0.264583 H 87.695836 v -0.264583 l -8.46667,-0.817562 -16.93333,-0.769938 c 1.07924,-1.09511 2.53233,-1.635919 3.13584,-3.175 2.41221,-6.151827 -6.12563,-9.85864 -10.54417,-11.1125 v -0.264583 c 8.52381,0 19.00687,-0.376767 26.9875,-3.599392 2.82151,-1.139296 6.83948,-2.6924 7.76869,-5.925608 1.09644,-3.815821 -3.66157,-6.586538 -6.44578,-8.002059 -8.00867,-4.071143 -17.21114,-6.285441 -26.19375,-6.285441 1.23376,-1.072886 3.2012,-0.911754 4.7625,-1.173427 3.40651,-0.571236 7.10354,-1.196182 9.71392,-3.675327 3.88196,-3.686705 3.44037,-8.162132 -0.98267,-11.112395 -4.70614,-3.13891 -10.85135,-4.147185 -16.40416,-4.147185 1.7436,-1.523179 4.70244,-1.051798 6.0788,-3.220931 1.72773,-2.722325 -3.45202,-4.756865 -5.28505,-5.373741 -4.27593,-1.439042 -8.77412,-1.194567 -12.96459,0.409734 -0.81438,0.311812 -1.63195,0.686144 -2.38125,1.134269 -5.82956,3.486811 1.43563,6.099413 4.7625,6.786086 m 2.91042,-8.126545 c 3.17579,-0.37592 6.8924,0.310939 9.78932,1.649148 3.59092,1.658673 0.94271,3.543565 -1.58724,4.092284 -0.95567,0.207248 -1.93966,0.341392 -2.91041,0.457491 -3.33931,0.399389 -6.87573,-0.145891 -10.05417,-1.180015 -0.90276,-0.293688 -2.72283,-0.804228 -2.89454,-1.933734 -0.34581,-2.275734 6.21506,-2.914491 7.65704,-3.085174 m 6.35,10.054167 c 4.885,-0.57449 10.94502,0.833199 15.34583,2.919598 1.5883,0.752977 4.16666,2.081159 4.12671,4.148613 -0.0347,1.801284 -1.93278,2.915444 -3.33296,3.63564 -3.61844,1.860815 -7.61021,2.794265 -11.64166,3.198812 -7.82506,0.785548 -15.75065,0.923925 -23.54792,-0.255322 -2.54741,-0.385234 -6.98024,-1.569773 -7.23265,-4.727046 -0.23125,-2.892425 3.75655,-4.220898 5.90973,-4.938898 6.76831,-2.256552 13.35141,-3.155632 20.37292,-3.981397 m -7.14375,19.843618 c 10.8802,-1.283759 23.69238,0.471752 33.86667,4.438914 2.42596,0.945886 7.15565,2.538148 7.60835,5.539846 0.69163,4.584965 -8.39602,6.573573 -11.5771,7.030508 -14.93864,2.145771 -31.08193,2.196042 -46.0375,0.225425 -4.15661,-0.547423 -12.07696,-0.541602 -14.61926,-4.614068 -1.97763,-3.168121 3.83529,-5.666052 5.88801,-6.675173 7.85177,-3.860271 16.30944,-4.935273 24.87083,-5.945452 m 2.91042,23.283333 c 4.65428,-0.550863 10.02241,1.078706 13.4821,4.237302 3.94203,3.599127 -1.70682,6.822546 -5.01544,7.252494 -5.74463,0.746389 -12.05494,-0.217752 -17.72708,-1.137973 -1.914,-0.310356 -5.1734,-0.987161 -6.01027,-3.022865 -0.70962,-1.726406 1.62374,-3.004343 2.83527,-3.631935 3.93991,-2.040202 8.04228,-3.176852 12.43542,-3.697023 z"
       id="path302" /></g></svg>
