<?xml version="1.0" standalone="no"?>
<!DOCTYPE svg PUBLIC "-//W3C//DTD SVG 20010904//EN"
 "http://www.w3.org/TR/2001/REC-SVG-20010904/DTD/svg10.dtd">
<svg version="1.0" xmlns="http://www.w3.org/2000/svg"
 width="700.000000pt" height="700.000000pt" viewBox="0 0 700.000000 700.000000"
 preserveAspectRatio="xMidYMid meet">
<metadata>
Created by potrace 1.14, written by Peter Selinger 2001-2017
</metadata>
<g transform="translate(0.000000,700.000000) scale(0.100000,-0.100000)"
fill="#000000" stroke="none">
<path d="M3468 6005 c-2 -1 -37 -5 -78 -8 -41 -4 -100 -11 -130 -17 -30 -6
-65 -13 -77 -16 -59 -12 -229 -76 -302 -114 -105 -55 -187 -131 -196 -182 -10
-51 -1 -81 35 -122 61 -69 209 -143 378 -187 45 -12 82 -25 82 -30 0 -4 -19
-10 -42 -14 -24 -4 -51 -9 -60 -11 -9 -1 -43 -5 -75 -9 -32 -3 -80 -8 -108
-11 -73 -7 -120 -12 -210 -19 -44 -4 -87 -8 -95 -10 -8 -1 -40 -6 -70 -9 -30
-4 -77 -11 -105 -16 -27 -5 -61 -12 -75 -14 -89 -17 -218 -59 -310 -104 -279
-132 -402 -369 -321 -615 33 -97 95 -181 204 -274 50 -43 209 -132 290 -164
133 -51 347 -110 532 -145 11 -2 41 -8 66 -14 26 -6 55 -13 65 -14 10 -2 20
-8 22 -14 2 -8 -11 -12 -40 -12 -137 -1 -340 -17 -478 -36 -19 -3 -53 -7 -75
-10 -59 -7 -89 -12 -200 -34 -55 -11 -109 -22 -120 -24 -191 -37 -561 -151
-811 -252 -261 -104 -392 -180 -495 -286 -78 -79 -103 -134 -103 -223 -1 -90
34 -165 113 -246 126 -129 376 -255 726 -366 102 -32 391 -106 460 -117 225
-37 283 -46 360 -56 255 -31 504 -48 825 -55 85 -2 174 -4 198 -5 57 0 54 -17
-5 -25 -219 -30 -544 -154 -721 -274 -145 -98 -220 -207 -209 -303 10 -79 70
-164 158 -225 52 -36 189 -101 277 -133 57 -21 86 -39 65 -41 -41 -4 -102 -8
-238 -13 -88 -4 -187 -9 -220 -11 -33 -3 -118 -7 -190 -10 -168 -7 -310 -14
-410 -20 -44 -2 -141 -7 -215 -10 -155 -6 -284 -14 -320 -20 -24 -4 -82 -9
-225 -20 -38 -4 -81 -8 -95 -10 -14 -2 -63 -7 -110 -10 -93 -7 -125 -13 -115
-23 9 -9 5606 -9 5611 0 6 10 -22 16 -106 24 -41 3 -86 7 -100 9 -130 13 -179
18 -205 20 -16 1 -61 5 -100 9 -89 9 -175 14 -590 31 -66 3 -158 8 -205 10
-47 2 -151 7 -231 10 -205 9 -270 13 -275 17 -2 3 28 29 67 58 99 76 136 122
161 204 24 79 21 184 -7 251 -78 183 -307 350 -645 470 -58 20 -109 41 -114
46 -6 5 35 9 100 10 207 1 542 13 664 24 19 1 76 6 125 9 50 4 97 9 105 11 8
2 44 7 80 10 55 6 267 40 375 60 271 52 668 202 836 315 190 130 261 308 185
465 -40 82 -156 195 -276 270 -105 65 -345 183 -485 238 -227 90 -536 184
-700 213 -16 3 -46 9 -65 14 -20 5 -55 12 -79 15 -24 3 -47 7 -50 9 -3 2 -31
7 -61 10 -30 4 -71 8 -90 11 -136 18 -234 26 -355 30 -55 2 -110 4 -123 4 -13
1 -20 5 -17 11 17 27 126 55 255 65 41 4 82 8 91 11 10 3 30 6 45 8 74 10 238
49 319 76 295 99 498 326 497 556 -1 181 -103 327 -317 453 -68 40 -110 60
-250 121 -87 39 -357 103 -485 116 -36 3 -68 8 -71 10 -3 1 -70 6 -150 10 -79
3 -146 8 -148 10 -9 9 75 48 174 80 136 45 179 66 222 111 122 130 18 274
-281 393 -96 38 -248 76 -336 85 -76 8 -198 14 -202 10z m242 -90 c209 -38
402 -108 466 -170 109 -106 -47 -220 -356 -262 -73 -10 -372 -10 -435 0 -163
25 -382 85 -463 126 -79 40 -104 98 -67 154 37 57 196 112 403 141 59 9 118
17 132 19 35 6 278 0 320 -8z m530 -721 c423 -55 874 -241 964 -397 63 -109
25 -215 -110 -307 -138 -96 -458 -211 -704 -254 -19 -3 -46 -8 -59 -11 -27 -5
-107 -15 -166 -20 -22 -2 -71 -6 -110 -10 -371 -36 -921 -41 -1260 -10 -98 8
-241 26 -340 41 -178 28 -366 109 -432 187 -137 162 -60 334 197 442 184 78
592 192 820 230 19 3 58 10 85 15 28 5 66 12 85 15 19 3 46 7 60 10 14 3 48 7
75 11 28 3 57 7 65 9 34 6 97 15 135 20 21 3 73 9 115 14 41 6 102 13 135 17
33 3 61 7 63 9 10 9 294 1 382 -11z m-30 -1398 c30 -2 89 -8 130 -11 41 -3 89
-8 105 -11 17 -3 48 -7 70 -9 22 -2 56 -6 75 -9 19 -3 53 -8 75 -11 46 -6 116
-18 240 -41 17 -3 58 -11 91 -19 34 -8 73 -16 85 -19 31 -5 235 -60 319 -84
242 -71 673 -242 710 -282 3 -3 24 -18 48 -34 174 -118 191 -308 41 -439 -111
-97 -340 -192 -584 -242 -51 -11 -347 -55 -400 -60 -45 -4 -89 -9 -180 -20
-17 -2 -68 -6 -115 -10 -47 -4 -96 -8 -109 -10 -14 -3 -74 -7 -135 -11 -61 -3
-122 -7 -135 -9 -169 -27 -1208 -26 -1561 0 -25 2 -88 6 -141 10 -53 3 -107 8
-120 10 -13 2 -62 6 -109 10 -47 3 -98 8 -115 10 -16 2 -55 7 -85 10 -30 3
-68 7 -85 9 -16 2 -59 7 -95 11 -36 3 -72 8 -80 10 -8 2 -44 7 -80 10 -92 8
-227 22 -294 30 -353 46 -583 152 -659 304 -70 142 33 266 358 429 205 102
392 176 603 238 64 19 126 36 137 39 11 2 47 11 80 19 143 34 381 79 545 101
25 3 56 8 70 10 40 6 181 24 235 30 28 3 57 8 65 10 8 2 51 7 95 11 44 3 89 8
100 10 11 2 65 6 120 10 55 3 101 7 103 9 5 4 522 -3 582 -9z m-330 -1700
c132 -24 135 -25 219 -56 168 -62 291 -134 395 -231 74 -68 92 -97 102 -156
11 -68 -11 -120 -80 -188 -92 -93 -218 -154 -371 -179 -103 -17 -420 -24 -550
-12 -27 2 -81 7 -120 11 -38 3 -86 8 -105 10 -69 8 -197 26 -216 29 -10 2 -46
7 -79 11 -32 3 -62 8 -65 10 -3 1 -27 6 -54 9 -143 19 -305 60 -371 93 -93 47
-160 137 -149 199 13 76 82 133 269 225 245 120 522 199 825 237 93 11 252 6
350 -12z"/>
</g>
</svg>
