<?xml version="1.0" encoding="UTF-8" standalone="no"?>
<!-- Created with Inkscape (http://www.inkscape.org/) -->

<svg
   width="26mm"
   height="27mm"
   viewBox="0 0 26 27"
   version="1.1"
   id="svg5"
   xml:space="preserve"
   sodipodi:docname="tg.svg"
   inkscape:version="1.2.2 (732a01da63, 2022-12-09)"
   xmlns:inkscape="http://www.inkscape.org/namespaces/inkscape"
   xmlns:sodipodi="http://sodipodi.sourceforge.net/DTD/sodipodi-0.dtd"
   xmlns="http://www.w3.org/2000/svg"
   xmlns:svg="http://www.w3.org/2000/svg"><sodipodi:namedview
     id="namedview7"
     pagecolor="#ffffff"
     bordercolor="#000000"
     borderopacity="0.25"
     inkscape:showpageshadow="2"
     inkscape:pageopacity="0.0"
     inkscape:pagecheckerboard="0"
     inkscape:deskcolor="#d1d1d1"
     inkscape:document-units="mm"
     showgrid="false"
     inkscape:zoom="1.4503086"
     inkscape:cx="241.6727"
     inkscape:cy="26.546074"
     inkscape:window-width="1920"
     inkscape:window-height="1001"
     inkscape:window-x="-9"
     inkscape:window-y="-9"
     inkscape:window-maximized="1"
     inkscape:current-layer="layer1" /><defs
     id="defs2" /><g
     inkscape:label="Слой 1"
     inkscape:groupmode="layer"
     id="layer1"><path
       style="fill:#000000;stroke-width:0.264583"
       d="M 3.9549713,26.243015 C 2.1536113,25.55037 1.0430803,24.373837 0.48681031,22.568727 -0.19044169,20.37104 -0.15009769,6.9107254 0.53956031,4.9685154 1.1215833,3.3294294 2.0566813,2.2893004 3.6032793,1.5606814 4.7127703,1.0379884 5.3024443,0.99400938 12.256581,0.91529738 25.664358,0.76353938 26.092858,1.1635684 26.092858,13.832056 c 0,9.642539 -0.56153,11.261027 -4.346607,12.528098 -1.094777,0.366479 -2.516357,0.434273 -8.863542,0.422698 -6.8898447,-0.01257 -7.6808537,-0.06039 -8.9277397,-0.539837 z M 17.704597,20.506189 C 18.295131,19.853658 20.161253,9.2490604 19.835109,8.3991444 19.506716,7.5433674 17.73976,8.1208544 8.7032503,12.037325 c -4.968524,2.153384 -5.293149,2.528607 -2.81172,3.249978 2.519003,0.732295 2.699166,0.681904 6.4172047,-1.794861 1.876107,-1.249766 3.492457,-2.190947 3.59189,-2.091513 0.09944,0.09943 -0.976241,1.256268 -2.390391,2.570743 -2.053016,1.908315 -2.5365,2.494981 -2.399104,2.911107 0.168664,0.51082 5.308886,4.088243 5.878748,4.091416 0.159348,7.94e-4 0.48097,-0.209717 0.714719,-0.468006 z"
       id="path302"
       sodipodi:nodetypes="sssssssssssssssssscs" /></g></svg>
