<?xml version="1.0" encoding="UTF-8" standalone="no"?>
<!-- Created with Inkscape (http://www.inkscape.org/) -->

<svg
   width="26mm"
   height="27mm"
   viewBox="0 0 26 27"
   version="1.1"
   id="svg5"
   xml:space="preserve"
   sodipodi:docname="tok.svg"
   inkscape:version="1.2.2 (732a01da63, 2022-12-09)"
   xmlns:inkscape="http://www.inkscape.org/namespaces/inkscape"
   xmlns:sodipodi="http://sodipodi.sourceforge.net/DTD/sodipodi-0.dtd"
   xmlns="http://www.w3.org/2000/svg"
   xmlns:svg="http://www.w3.org/2000/svg"><sodipodi:namedview
     id="namedview7"
     pagecolor="#ffffff"
     bordercolor="#000000"
     borderopacity="0.25"
     inkscape:showpageshadow="2"
     inkscape:pageopacity="0.0"
     inkscape:pagecheckerboard="0"
     inkscape:deskcolor="#d1d1d1"
     inkscape:document-units="mm"
     showgrid="false"
     inkscape:zoom="1.4503086"
     inkscape:cx="241.6727"
     inkscape:cy="26.546074"
     inkscape:window-width="1920"
     inkscape:window-height="1001"
     inkscape:window-x="-9"
     inkscape:window-y="-9"
     inkscape:window-maximized="1"
     inkscape:current-layer="layer1" /><defs
     id="defs2" /><g
     inkscape:label="Слой 1"
     inkscape:groupmode="layer"
     id="layer1"><path
       style="fill:#000000;stroke-width:0.264583"
       d="M 5.98185,26.653595 C 3.73922,26.233349 3.09202,25.973354 2.13921,25.109931 0.51021,23.633741 0,20.912356 0,13.699765 0,4.9083276 0.68294,2.7144056 3.82907,1.3989826 5.35082,0.76272657 5.64867,0.73667357 12.41696,0.64778557 c 7.30979,-0.096 8.96505,0.06169 10.88905,1.03737503 1.27793,0.64805 1.98614,1.592376 2.54328,3.391195 0.38769,1.251698 0.45829,2.60063 0.45829,8.7557004 0,7.67983 -0.11784,8.647983 -1.25621,10.320605 -1.53988,2.262584 -3.17169,2.675752 -11.04691,2.797045 -4.44114,0.0684 -6.47874,-0.0068 -8.02261,-0.296111 z m 7.37209,-5.645949 c 1.3049,-0.592733 2.39001,-1.832748 2.75554,-3.148909 0.1503,-0.541184 0.27394,-2.207421 0.27475,-3.702746 l 0.001,-2.718774 0.73675,0.380987 c 0.4052,0.209542 1.17911,0.463975 1.71979,0.565407 l 0.98304,0.18442 v -1.331843 c 0,-1.2749574 -0.0377,-1.3442814 -0.8824,-1.6230614 -1.08895,-0.359386 -2.24981,-1.535391 -2.52265,-2.555547 -0.19089,-0.713778 -0.29402,-0.766148 -1.50878,-0.766148 H 13.6071 l -0.14533,5.8208334 c -0.0799,3.201458 -0.16923,5.84754 -0.19844,5.880184 -0.20053,0.224123 -1.68633,0.86669 -2.00404,0.86669 -0.77649,0 -2.01781,-1.329129 -2.01781,-2.160539 0,-1.013947 1.27005,-2.337377 2.2431,-2.337377 0.66561,0 0.69275,-0.0554 0.61566,-1.256771 -0.0736,-1.146476 -0.14365,-1.264037 -0.7986,-1.339561 -1.09091,-0.125794 -2.9529,0.827036 -3.80865,1.948981 -0.67896,0.890155 -0.76505,1.216099 -0.76505,2.896309 0,1.679057 0.0863,2.006465 0.76303,2.893666 1.40391,1.840624 3.77947,2.449983 5.86249,1.503799 z"
       id="path302"
       sodipodi:nodetypes="ssssssssssscsccsscssssccsssscsssccc" /></g></svg>
