<?xml version="1.0" encoding="UTF-8" standalone="no"?>
<!-- Created with Inkscape (http://www.inkscape.org/) -->

<svg
   width="26mm"
   height="27mm"
   viewBox="0 0 26 27"
   version="1.1"
   id="svg5"
   xml:space="preserve"
   sodipodi:docname="tube.svg"
   inkscape:version="1.2.2 (732a01da63, 2022-12-09)"
   xmlns:inkscape="http://www.inkscape.org/namespaces/inkscape"
   xmlns:sodipodi="http://sodipodi.sourceforge.net/DTD/sodipodi-0.dtd"
   xmlns="http://www.w3.org/2000/svg"
   xmlns:svg="http://www.w3.org/2000/svg"><sodipodi:namedview
     id="namedview7"
     pagecolor="#ffffff"
     bordercolor="#000000"
     borderopacity="0.25"
     inkscape:showpageshadow="2"
     inkscape:pageopacity="0.0"
     inkscape:pagecheckerboard="0"
     inkscape:deskcolor="#d1d1d1"
     inkscape:document-units="mm"
     showgrid="false"
     inkscape:zoom="1.4503086"
     inkscape:cx="241.6727"
     inkscape:cy="26.546074"
     inkscape:window-width="1920"
     inkscape:window-height="1001"
     inkscape:window-x="-9"
     inkscape:window-y="-9"
     inkscape:window-maximized="1"
     inkscape:current-layer="layer1" /><defs
     id="defs2" /><g
     inkscape:label="Слой 1"
     inkscape:groupmode="layer"
     id="layer1"><path
       style="fill:#000000;stroke-width:0.264583"
       d="M 4.5005189,26.655942 C 0.47465893,25.542657 -0.17775107,23.515928 0.03570893,12.785735 c 0.0774,-3.8896192 0.25515,-6.8997522 0.44326,-7.5052172 0.50123,-1.613355 1.96062997,-3.021382 3.68498997,-3.555262 1.25969,-0.390016 2.58741,-0.460907 8.6324001,-0.460907 8.44897,0 9.44074,0.163006 11.09075,1.822853 1.82284,1.833704 2.00613,2.854112 2.00613,11.1687192 0,6.333239 -0.0557,7.276505 -0.5013,8.495721 -0.73644,2.014807 -1.435,2.840675 -2.99696,3.54313 -1.35189,0.607978 -1.63761,0.630055 -8.93716,0.690494 -5.9944101,0.04963 -7.8311201,-0.01789 -8.9573001,-0.329324 z M 18.840849,18.8747 c 0.36862,-0.140148 0.79463,-0.487286 0.94669,-0.77142 0.4162,-0.777671 0.64348,-3.968784 0.42679,-5.992221 -0.28801,-2.6893692 -0.60872,-2.9168482 -4.44538,-3.1531132 -1.69555,-0.104413 -4.35123,-0.104876 -5.9015001,-10e-4 -2.38649,0.159861 -2.92571,0.280879 -3.51676,0.789275 -0.69281,0.5959302 -0.69808,0.6285552 -0.69808,4.3201902 0,3.517048 0.0328,3.752562 0.60214,4.322387 0.45549,0.455898 1.03539,0.645525 2.38125,0.778674 2.3460001,0.232095 9.3531201,0.03108 10.2048501,-0.292743 z m -7.4997,-4.778061 c 0,-1.309549 0.0969,-1.849736 0.33073,-1.844072 0.1819,0.0044 1.01946,0.403129 1.86124,0.886051 1.13631,0.651898 1.44296,0.944752 1.19062,1.137055 -0.6739,0.513561 -2.82161,1.67305 -3.09897,1.67305 -0.17475,0 -0.28362,-0.710896 -0.28362,-1.852084 z"
       id="path302"
       sodipodi:nodetypes="ssssssscssssssscssssssssssss" /></g></svg>
