<?xml version="1.0" encoding="UTF-8" standalone="no"?>
<!-- Created with Inkscape (http://www.inkscape.org/) -->

<svg
   width="26mm"
   height="27mm"
   viewBox="0 0 26 27"
   version="1.1"
   id="svg5"
   xml:space="preserve"
   inkscape:version="1.2.2 (732a01da63, 2022-12-09)"
   sodipodi:docname="vk.svg"
   xmlns:inkscape="http://www.inkscape.org/namespaces/inkscape"
   xmlns:sodipodi="http://sodipodi.sourceforge.net/DTD/sodipodi-0.dtd"
   xmlns="http://www.w3.org/2000/svg"
   xmlns:svg="http://www.w3.org/2000/svg"><sodipodi:namedview
     id="namedview7"
     pagecolor="#ffffff"
     bordercolor="#000000"
     borderopacity="0.25"
     inkscape:showpageshadow="2"
     inkscape:pageopacity="0.0"
     inkscape:pagecheckerboard="0"
     inkscape:deskcolor="#d1d1d1"
     inkscape:document-units="mm"
     showgrid="false"
     inkscape:zoom="1.4503086"
     inkscape:cx="241.6727"
     inkscape:cy="26.546074"
     inkscape:window-width="1920"
     inkscape:window-height="1001"
     inkscape:window-x="-9"
     inkscape:window-y="-9"
     inkscape:window-maximized="1"
     inkscape:current-layer="layer1" /><defs
     id="defs2" /><g
     inkscape:label="Слой 1"
     inkscape:groupmode="layer"
     id="layer1"><path
       style="fill:#000000;stroke-width:0.264583"
       d="M 3.9940948,26.236302 C 2.2056698,25.548899 1.1397251,24.462816 0.56985782,22.747374 0.19614362,21.622403 0.09606422,20.117011 0.01892842,14.460312 -0.11018348,4.99201 0.35842792,3.224066 3.3958138,1.720244 6.0517758,0.29291531 9.3716324,0.94859623 12.313699,0.915295 25.677545,0.764034 26.133642,1.190323 26.133642,13.832054 c 0,9.547087 -0.598593,11.278902 -4.330274,12.528098 -1.094777,0.366479 -2.516356,0.434273 -8.863542,0.422698 C 6.0180228,26.77023 5.2632378,26.72411 3.9940948,26.2363 Z m 9.9850522,-8.865444 v -1.752864 l 0.852623,0.170524 c 0.936026,0.187206 2.416545,1.468434 3.013203,2.607601 0.337915,0.64516 0.530224,0.727604 1.697218,0.727604 1.092129,0 1.316122,-0.08124 1.316122,-0.477367 0,-0.754189 -1.428475,-2.809485 -2.615836,-3.763674 l -1.084353,-0.87141 1.281382,-1.354873 c 1.250331,-1.322038 2.095018,-3.040482 1.760545,-3.58167 -0.09169,-0.148366 -0.624575,-0.269756 -1.184179,-0.269756 -0.954667,0 -1.067069,0.0879 -1.821241,1.424218 -0.729413,1.292449 -2.158572,2.544532 -2.904394,2.544532 -0.173866,0 -0.3187,-0.759822 -0.365645,-1.918229 L 13.846852,8.937265 H 12.65623 11.465605 l -0.07405,3.373437 c -0.0807,3.676362 -0.172934,3.85145 -1.4851498,2.819261 -0.997166,-0.784372 -1.805928,-2.470752 -2.145135,-4.472907 L 7.4699002,8.937265 6.2239088,8.856515 c -1.549411,-0.100418 -1.665136,0.133457 -1.249954,2.526093 0.40744,2.348021 1.044352,3.736415 2.3775354,5.182748 1.517952,1.646782 3.3481438,2.468851 5.6354698,2.531287 l 0.992188,0.02708 z"
       id="path302"
       sodipodi:nodetypes="sssccsssssccssssscscsssscccsssccssscc" /></g></svg>
